<mxfile host="app.diagrams.net" agent="Mozilla/5.0 (Windows NT 10.0; Win64; x64) AppleWebKit/537.36 (KHTML, like Gecko) Chrome/134.0.0.0 Safari/537.36" version="26.1.0">
  <diagram name="Pagină-1" id="ddQv_wzsTZBWzUbWPsOU">
    <mxGraphModel dx="2120" dy="953" grid="1" gridSize="10" guides="1" tooltips="1" connect="1" arrows="1" fold="1" page="1" pageScale="1" pageWidth="827" pageHeight="1169" math="0" shadow="0">
      <root>
        <mxCell id="0" />
        <mxCell id="1" parent="0" />
        <mxCell id="Oofgd8KAAimV3NUf_qpA-2" value="Process Incoming UART OBC" style="rounded=1;whiteSpace=wrap;fillColor=#FFDD99;" parent="1" vertex="1">
          <mxGeometry x="360" y="421" width="100" height="50" as="geometry" />
        </mxCell>
        <mxCell id="Oofgd8KAAimV3NUf_qpA-3" value="PUS 8&#xa;(FUNCTION MANAGEMENT)" style="rounded=1;whiteSpace=wrap;fillColor=#99FF99;" parent="1" vertex="1">
          <mxGeometry x="104" y="534.5" width="176" height="50" as="geometry" />
        </mxCell>
        <mxCell id="Oofgd8KAAimV3NUf_qpA-4" value="PUS 3&#xa;(HOUSEKEEPING)" style="rounded=1;whiteSpace=wrap;fillColor=#99FF99;" parent="1" vertex="1">
          <mxGeometry x="484" y="620" width="180" height="50" as="geometry" />
        </mxCell>
        <mxCell id="Oofgd8KAAimV3NUf_qpA-5" value="Transmit OBC Msg" style="rounded=1;whiteSpace=wrap;fillColor=#CCCCFF;" parent="1" vertex="1">
          <mxGeometry x="476" y="350" width="150" height="50" as="geometry" />
        </mxCell>
        <mxCell id="Oofgd8KAAimV3NUf_qpA-11" value="OBC UART&#xa; Controller" style="rounded=1;whiteSpace=wrap;fillColor=#FFCCCC;" parent="1" vertex="1">
          <mxGeometry x="370" y="100" width="120" height="50" as="geometry" />
        </mxCell>
        <mxCell id="Oofgd8KAAimV3NUf_qpA-13" value="FPGA UART Controller" style="rounded=1;whiteSpace=wrap;fillColor=#FFCCCC;" parent="1" vertex="1">
          <mxGeometry x="210" y="100" width="120" height="50" as="geometry" />
        </mxCell>
        <mxCell id="Oofgd8KAAimV3NUf_qpA-15" value="MCU UART&#xa;Controller 2" style="rounded=1;whiteSpace=wrap;fillColor=#FFCCCC;" parent="1" vertex="1">
          <mxGeometry x="370" y="230" width="120" height="50" as="geometry" />
        </mxCell>
        <mxCell id="Oofgd8KAAimV3NUf_qpA-19" value="" style="outlineConnect=0;dashed=0;verticalLabelPosition=bottom;verticalAlign=top;align=center;html=1;shape=mxgraph.aws3.queue;fillColor=#D9A741;gradientColor=none;direction=north;" parent="1" vertex="1">
          <mxGeometry x="686" y="470" width="48" height="73.5" as="geometry" />
        </mxCell>
        <mxCell id="Oofgd8KAAimV3NUf_qpA-20" value="" style="endArrow=classic;html=1;rounded=0;exitX=1;exitY=0.5;exitDx=0;exitDy=0;exitPerimeter=0;entryX=0.5;entryY=1;entryDx=0;entryDy=0;" parent="1" source="Oofgd8KAAimV3NUf_qpA-19" target="Oofgd8KAAimV3NUf_qpA-5" edge="1">
          <mxGeometry width="50" height="50" relative="1" as="geometry">
            <mxPoint x="390" y="490" as="sourcePoint" />
            <mxPoint x="440" y="440" as="targetPoint" />
            <Array as="points" />
          </mxGeometry>
        </mxCell>
        <mxCell id="Oofgd8KAAimV3NUf_qpA-26" value="" style="outlineConnect=0;dashed=0;verticalLabelPosition=bottom;verticalAlign=top;align=center;html=1;shape=mxgraph.aws3.queue;fillColor=#D9A741;gradientColor=none;direction=south;" parent="1" vertex="1">
          <mxGeometry x="450" y="511" width="48" height="73.5" as="geometry" />
        </mxCell>
        <mxCell id="Oofgd8KAAimV3NUf_qpA-27" value="" style="outlineConnect=0;dashed=0;verticalLabelPosition=bottom;verticalAlign=top;align=center;html=1;shape=mxgraph.aws3.queue;fillColor=#D9A741;gradientColor=none;direction=south;" parent="1" vertex="1">
          <mxGeometry x="550" y="511" width="48" height="73.5" as="geometry" />
        </mxCell>
        <mxCell id="Oofgd8KAAimV3NUf_qpA-28" value="" style="endArrow=classic;html=1;rounded=0;entryX=0;entryY=0.5;entryDx=0;entryDy=0;exitX=0.25;exitY=1;exitDx=0;exitDy=0;entryPerimeter=0;" parent="1" source="Oofgd8KAAimV3NUf_qpA-2" target="Oofgd8KAAimV3NUf_qpA-26" edge="1">
          <mxGeometry width="50" height="50" relative="1" as="geometry">
            <mxPoint x="440" y="440" as="sourcePoint" />
            <mxPoint x="390" y="490" as="targetPoint" />
            <Array as="points" />
          </mxGeometry>
        </mxCell>
        <mxCell id="Oofgd8KAAimV3NUf_qpA-29" value="" style="endArrow=classic;html=1;rounded=0;entryX=0;entryY=0.5;entryDx=0;entryDy=0;exitX=0.75;exitY=1;exitDx=0;exitDy=0;entryPerimeter=0;" parent="1" source="Oofgd8KAAimV3NUf_qpA-2" target="Oofgd8KAAimV3NUf_qpA-27" edge="1">
          <mxGeometry width="50" height="50" relative="1" as="geometry">
            <mxPoint x="330" y="400" as="sourcePoint" />
            <mxPoint x="245" y="500" as="targetPoint" />
            <Array as="points" />
          </mxGeometry>
        </mxCell>
        <mxCell id="Oofgd8KAAimV3NUf_qpA-31" value="" style="endArrow=classic;html=1;rounded=0;exitX=1;exitY=0.5;exitDx=0;exitDy=0;exitPerimeter=0;entryX=0.5;entryY=0;entryDx=0;entryDy=0;" parent="1" source="Oofgd8KAAimV3NUf_qpA-27" target="Oofgd8KAAimV3NUf_qpA-4" edge="1">
          <mxGeometry width="50" height="50" relative="1" as="geometry">
            <mxPoint x="330" y="550" as="sourcePoint" />
            <mxPoint x="330" y="606" as="targetPoint" />
          </mxGeometry>
        </mxCell>
        <mxCell id="Oofgd8KAAimV3NUf_qpA-32" value="" style="endArrow=classic;html=1;rounded=0;exitX=0.5;exitY=1;exitDx=0;exitDy=0;entryX=0;entryY=0;entryDx=0;entryDy=0;entryPerimeter=0;" parent="1" source="Oofgd8KAAimV3NUf_qpA-4" target="Oofgd8KAAimV3NUf_qpA-19" edge="1">
          <mxGeometry width="50" height="50" relative="1" as="geometry">
            <mxPoint x="370" y="610" as="sourcePoint" />
            <mxPoint x="600" y="600" as="targetPoint" />
            <Array as="points">
              <mxPoint x="574" y="720" />
              <mxPoint x="590" y="730" />
              <mxPoint x="686" y="730" />
            </Array>
          </mxGeometry>
        </mxCell>
        <mxCell id="Oofgd8KAAimV3NUf_qpA-33" value="" style="endArrow=classic;html=1;rounded=0;exitX=0.5;exitY=1;exitDx=0;exitDy=0;entryX=0;entryY=1;entryDx=0;entryDy=0;entryPerimeter=0;" parent="1" source="Oofgd8KAAimV3NUf_qpA-3" target="Oofgd8KAAimV3NUf_qpA-19" edge="1">
          <mxGeometry width="50" height="50" relative="1" as="geometry">
            <mxPoint x="150" y="610" as="sourcePoint" />
            <mxPoint x="630" y="600" as="targetPoint" />
            <Array as="points">
              <mxPoint x="400" y="780" />
              <mxPoint x="420" y="780" />
              <mxPoint x="734" y="780" />
            </Array>
          </mxGeometry>
        </mxCell>
        <mxCell id="uqsOZBm66acdyXTOZB4C-2" value="MCU UART &#xa;Controller 1" style="rounded=1;whiteSpace=wrap;fillColor=#FFCCCC;" parent="1" vertex="1">
          <mxGeometry x="210" y="230" width="120" height="50" as="geometry" />
        </mxCell>
        <mxCell id="uqsOZBm66acdyXTOZB4C-3" value="" style="endArrow=classic;html=1;rounded=0;entryX=0.25;entryY=1;entryDx=0;entryDy=0;exitX=0.687;exitY=-0.001;exitDx=0;exitDy=0;exitPerimeter=0;" parent="1" target="Y2emWDWQEBasdr7QZTMM-10" edge="1" source="Oofgd8KAAimV3NUf_qpA-3">
          <mxGeometry width="50" height="50" relative="1" as="geometry">
            <mxPoint x="270" y="560" as="sourcePoint" />
            <mxPoint x="270" y="370" as="targetPoint" />
          </mxGeometry>
        </mxCell>
        <mxCell id="uqsOZBm66acdyXTOZB4C-6" value="FRAM" style="shape=cube;whiteSpace=wrap;html=1;boundedLbl=1;backgroundOutline=1;darkOpacity=0.05;darkOpacity2=0.1;" parent="1" vertex="1">
          <mxGeometry x="90" y="700" width="120" height="80" as="geometry" />
        </mxCell>
        <mxCell id="uqsOZBm66acdyXTOZB4C-7" value="" style="shape=flexArrow;endArrow=classic;startArrow=classic;html=1;rounded=0;entryX=0.302;entryY=1.008;entryDx=0;entryDy=0;entryPerimeter=0;exitX=0.556;exitY=0.02;exitDx=0;exitDy=0;exitPerimeter=0;" parent="1" target="Oofgd8KAAimV3NUf_qpA-3" edge="1" source="uqsOZBm66acdyXTOZB4C-6">
          <mxGeometry width="100" height="100" relative="1" as="geometry">
            <mxPoint x="163.5" y="830" as="sourcePoint" />
            <mxPoint x="163.5" y="710" as="targetPoint" />
          </mxGeometry>
        </mxCell>
        <mxCell id="uqsOZBm66acdyXTOZB4C-10" value="Process Incoming UART FPGA" style="rounded=1;whiteSpace=wrap;fillColor=#FFDD99;" parent="1" vertex="1">
          <mxGeometry x="240" y="350" width="106" height="50" as="geometry" />
        </mxCell>
        <mxCell id="Y2emWDWQEBasdr7QZTMM-3" value="FMC" style="rounded=1;whiteSpace=wrap;fillColor=#FFCCCC;" vertex="1" parent="1">
          <mxGeometry x="61" y="230" width="120" height="50" as="geometry" />
        </mxCell>
        <mxCell id="Y2emWDWQEBasdr7QZTMM-4" value="FPGA SRAM &#xa;FIFO" style="rounded=1;whiteSpace=wrap;fillColor=#FFCCCC;" vertex="1" parent="1">
          <mxGeometry x="60" y="100" width="120" height="50" as="geometry" />
        </mxCell>
        <mxCell id="Y2emWDWQEBasdr7QZTMM-5" value="" style="endArrow=classic;html=1;rounded=0;exitX=0.5;exitY=1;exitDx=0;exitDy=0;entryX=0.5;entryY=0;entryDx=0;entryDy=0;" edge="1" parent="1" source="Y2emWDWQEBasdr7QZTMM-4" target="Y2emWDWQEBasdr7QZTMM-3">
          <mxGeometry width="50" height="50" relative="1" as="geometry">
            <mxPoint x="230" y="420" as="sourcePoint" />
            <mxPoint x="280" y="370" as="targetPoint" />
          </mxGeometry>
        </mxCell>
        <mxCell id="Y2emWDWQEBasdr7QZTMM-9" value="Measurement&amp;nbsp;&lt;div&gt;Data Buffer&lt;/div&gt;" style="shape=cylinder3;whiteSpace=wrap;html=1;boundedLbl=1;backgroundOutline=1;size=15;" vertex="1" parent="1">
          <mxGeometry x="40" y="381" width="85" height="130" as="geometry" />
        </mxCell>
        <mxCell id="Y2emWDWQEBasdr7QZTMM-10" value="DMA" style="rounded=1;whiteSpace=wrap;html=1;fillColor=light-dark(#FFCCE6,var(--ge-dark-color, #121212));" vertex="1" parent="1">
          <mxGeometry x="210" y="300" width="56" height="20" as="geometry" />
        </mxCell>
        <mxCell id="Y2emWDWQEBasdr7QZTMM-12" value="DMA" style="rounded=1;whiteSpace=wrap;html=1;fillColor=light-dark(#FFCCE6,var(--ge-dark-color, #121212));" vertex="1" parent="1">
          <mxGeometry x="75" y="300" width="90" height="20" as="geometry" />
        </mxCell>
        <mxCell id="Y2emWDWQEBasdr7QZTMM-15" value="" style="endArrow=classic;html=1;rounded=0;exitX=0.264;exitY=-0.001;exitDx=0;exitDy=0;entryX=0.835;entryY=0.961;entryDx=0;entryDy=0;entryPerimeter=0;exitPerimeter=0;" edge="1" parent="1" source="Oofgd8KAAimV3NUf_qpA-3" target="Y2emWDWQEBasdr7QZTMM-12">
          <mxGeometry width="50" height="50" relative="1" as="geometry">
            <mxPoint x="230" y="540" as="sourcePoint" />
            <mxPoint x="280" y="490" as="targetPoint" />
          </mxGeometry>
        </mxCell>
        <mxCell id="Y2emWDWQEBasdr7QZTMM-16" value="" style="endArrow=classic;html=1;rounded=0;exitX=0.169;exitY=1.062;exitDx=0;exitDy=0;exitPerimeter=0;" edge="1" parent="1" source="Y2emWDWQEBasdr7QZTMM-12">
          <mxGeometry width="50" height="50" relative="1" as="geometry">
            <mxPoint x="170" y="320" as="sourcePoint" />
            <mxPoint x="90" y="380" as="targetPoint" />
          </mxGeometry>
        </mxCell>
        <mxCell id="Y2emWDWQEBasdr7QZTMM-17" value="" style="endArrow=classic;html=1;rounded=0;exitX=0.587;exitY=1.002;exitDx=0;exitDy=0;exitPerimeter=0;entryX=0;entryY=0.5;entryDx=0;entryDy=0;" edge="1" parent="1" source="Y2emWDWQEBasdr7QZTMM-9" target="Oofgd8KAAimV3NUf_qpA-3">
          <mxGeometry width="50" height="50" relative="1" as="geometry">
            <mxPoint x="180" y="500" as="sourcePoint" />
            <mxPoint x="230" y="450" as="targetPoint" />
            <Array as="points">
              <mxPoint x="90" y="595" />
            </Array>
          </mxGeometry>
        </mxCell>
        <mxCell id="Y2emWDWQEBasdr7QZTMM-18" value="" style="endArrow=classic;startArrow=classic;html=1;rounded=0;entryX=0.5;entryY=1;entryDx=0;entryDy=0;exitX=0.5;exitY=0;exitDx=0;exitDy=0;" edge="1" parent="1" source="uqsOZBm66acdyXTOZB4C-2" target="Oofgd8KAAimV3NUf_qpA-13">
          <mxGeometry width="50" height="50" relative="1" as="geometry">
            <mxPoint x="110" y="480" as="sourcePoint" />
            <mxPoint x="160" y="430" as="targetPoint" />
          </mxGeometry>
        </mxCell>
        <mxCell id="Y2emWDWQEBasdr7QZTMM-20" value="" style="endArrow=classic;html=1;rounded=0;exitX=0.5;exitY=1;exitDx=0;exitDy=0;entryX=0.5;entryY=0;entryDx=0;entryDy=0;" edge="1" parent="1" source="Y2emWDWQEBasdr7QZTMM-3" target="Y2emWDWQEBasdr7QZTMM-12">
          <mxGeometry width="50" height="50" relative="1" as="geometry">
            <mxPoint x="110" y="480" as="sourcePoint" />
            <mxPoint x="160" y="430" as="targetPoint" />
          </mxGeometry>
        </mxCell>
        <mxCell id="Y2emWDWQEBasdr7QZTMM-21" value="" style="endArrow=classic;html=1;rounded=0;entryX=0.25;entryY=1;entryDx=0;entryDy=0;" edge="1" parent="1" target="uqsOZBm66acdyXTOZB4C-2">
          <mxGeometry width="50" height="50" relative="1" as="geometry">
            <mxPoint x="240" y="300" as="sourcePoint" />
            <mxPoint x="280" y="260" as="targetPoint" />
          </mxGeometry>
        </mxCell>
        <mxCell id="Y2emWDWQEBasdr7QZTMM-22" value="" style="endArrow=classic;startArrow=classic;html=1;rounded=0;entryX=0.5;entryY=1;entryDx=0;entryDy=0;exitX=0.5;exitY=0;exitDx=0;exitDy=0;" edge="1" parent="1">
          <mxGeometry width="50" height="50" relative="1" as="geometry">
            <mxPoint x="429.40999999999997" y="230" as="sourcePoint" />
            <mxPoint x="429.40999999999997" y="150" as="targetPoint" />
          </mxGeometry>
        </mxCell>
        <mxCell id="Y2emWDWQEBasdr7QZTMM-23" value="" style="endArrow=classic;html=1;rounded=0;exitX=0.75;exitY=1;exitDx=0;exitDy=0;" edge="1" parent="1" source="uqsOZBm66acdyXTOZB4C-2">
          <mxGeometry width="50" height="50" relative="1" as="geometry">
            <mxPoint x="270" y="510" as="sourcePoint" />
            <mxPoint x="300" y="340" as="targetPoint" />
          </mxGeometry>
        </mxCell>
        <mxCell id="Y2emWDWQEBasdr7QZTMM-24" value="DMA" style="rounded=1;whiteSpace=wrap;html=1;fillColor=light-dark(#FFCCE6,var(--ge-dark-color, #121212));arcSize=0;" vertex="1" parent="1">
          <mxGeometry x="434" y="300" width="56" height="20" as="geometry" />
        </mxCell>
      </root>
    </mxGraphModel>
  </diagram>
</mxfile>
